<svg xmlns="http://www.w3.org/2000/svg" viewBox="0 0 64 64">
  <defs>
    <linearGradient id="favGrad" x1="0" y1="0" x2="64" y2="64" gradientUnits="userSpaceOnUse">
      <stop offset="0" stop-color="#006aff" />
      <stop offset="1" stop-color="#00cc99" />
    </linearGradient>
  </defs>
  <rect width="64" height="64" rx="14" fill="url(#favGrad)" />
  <!-- Left lobe -->
  <path
    d="M32 32
       C32 24 26 18 18 18
       C10 18 4 24 4 32
       C4 40 10 46 18 46
       C26 46 32 40 32 32 Z"
    fill="none" stroke="white" stroke-width="4.2" stroke-linecap="round" stroke-linejoin="round"
  />
  <!-- Right lobe -->
  <path
    d="M32 32
       C32 24 38 18 46 18
       C54 18 60 24 60 32
       C60 40 54 46 46 46
       C38 46 32 40 32 32 Z"
    fill="none" stroke="white" stroke-width="4.2" stroke-linecap="round" stroke-linejoin="round"
  />
  <!-- Top W peak -->
  <path
    d="M18 18 L32 28 L46 18"
    fill="none" stroke="white" stroke-width="4.2" stroke-linecap="round" stroke-linejoin="round"
  />
</svg>