<svg xmlns="http://www.w3.org/2000/svg" viewBox="0 0 180 180">
  <defs>
    <linearGradient id="appleGrad" x1="0" y1="0" x2="180" y2="180" gradientUnits="userSpaceOnUse">
      <stop offset="0" stop-color="#006aff" />
      <stop offset="1" stop-color="#00cc99" />
    </linearGradient>
  </defs>
  <rect width="180" height="180" rx="40" fill="url(#appleGrad)" />
  <!-- Left lobe -->
  <path
    d="M90 90
       C90 67 74 50 51 50
       C28 50 12 67 12 90
       C12 113 28 130 51 130
       C74 130 90 113 90 90 Z"
    fill="none" stroke="white" stroke-width="12" stroke-linecap="round" stroke-linejoin="round"
  />
  <!-- Right lobe -->
  <path
    d="M90 90
       C90 67 106 50 129 50
       C152 50 168 67 168 90
       C168 113 152 130 129 130
       C106 130 90 113 90 90 Z"
    fill="none" stroke="white" stroke-width="12" stroke-linecap="round" stroke-linejoin="round"
  />
  <!-- Top W peak -->
  <path
    d="M51 50 L90 78 L129 50"
    fill="none" stroke="white" stroke-width="12" stroke-linecap="round" stroke-linejoin="round"
  />
</svg>